:version 1.10
:name ASF
:units
  mass 1
  length 1
  angle deg
:documentation
  ASF file generated by Kaydara
:root
  axis xyz
  order  tx ty tz rx ry rz
  position 0 0 0
  orientation 0 0 0
:bonedata
  begin
    id 1
    name RightUpLegDummy
    direction -1 2.30186e-007 8.31532e-007
    length 4.04083
    axis 0 0 0 xyz
  end
  begin
    id 2
    name RightUpLeg
    direction -0.000919234 -0.999985 0.00544864
    length 17.4221
    axis -3.80308 -0.00076134 -0.0523649 xyz
    dof rx ry rz
  end
  begin
    id 3
    name RightLeg
    direction -0.000919271 -0.999984 -0.00555045
    length 17.1239
    axis 4.00314 0.0181274 -0.183583 xyz
    dof rx ry rz
  end
  begin
    id 4
    name RightFoot
    direction -2.57843e-005 -4.04509e-007 1
    length 6.72091
    axis 8.18909e-005 -0.122003 -0.403008 xyz
    dof rx ry rz
  end
  begin
    id 5
    name RightToes
    direction 0.00116825 -0.014069 0.9999
    length 3.85082
    axis 0.000514414 0.540638 -0.356797 xyz
    dof rx ry rz
  end
  begin
    id 6
    name SpineDummy
    direction 0.0168869 0.966876 -0.254689
    length 6.99894
    axis 0 0 0 xyz
  end
  begin
    id 7
    name Spine
    direction -0.0132008 0.999903 0.00446247
    length 11.1999
    axis -0.00148109 0.00725429 0.756411 xyz
    dof rx ry rz
  end
  begin
    id 8
    name Spine1
    direction 0 0 0
    length 0
    axis -0.000934958 0.0245693 1.46543 xyz
    dof rx ry rz
  end
  begin
    id 9
    name HEadDummy
    direction -0.0255732 0.999672 0.00128215
    length 3.43865
    axis -0.000934958 0.0245693 1.46543 xyz
  end
  begin
    id 10
    name HEad
    direction -0.0472656 0.980052 0.19304
    length 5.12695
    axis -0.000934954 0.0245693 1.46543 xyz
    dof rx ry rz
  end
  begin
    id 11
    name LeftShoulder1Dummy
    direction 0.953098 0.301717 -0.023914
    length 3.68488
    axis -0.000934958 0.0245693 1.46543 xyz
  end
  begin
    id 12
    name LeftShoulder1
    direction 0.962466 0.271167 0.0112566
    length 3.13809
    axis -0.000934958 0.0245693 1.46543 xyz
    dof rx ry rz
  end
  begin
    id 13
    name LeftArm
    direction 0.999943 0.00455037 -0.00961766
    length 11.3419
    axis -23.1648 0.685459 1.22814 xyz
    dof rx ry rz
  end
  begin
    id 14
    name LeftForeArm
    direction 0.999332 0.0131969 0.0340885
    length 8.70632
    axis -9.90633 0.618216 0.0826942 xyz
    dof rx ry rz
  end
  begin
    id 15
    name LeftHand
    direction 0.994373 -0.0366703 0.0993905
    length 5.32135
    axis 0.00675269 0.680415 0.445699 xyz
    dof rx ry rz
  end
  begin
    id 16
    name RightShoulderDummy
    direction -0.967298 0.252589 -0.0230903
    length 3.68488
    axis -0.000934958 0.0245693 1.46543 xyz
  end
  begin
    id 17
    name RightShoulder
    direction -0.975062 0.221602 0.0120823
    length 3.13809
    axis 0.216257 0.0246515 1.45863 xyz
    dof rx ry rz
  end
  begin
    id 18
    name RightArm
    direction -0.99886 -0.00851186 -0.0469687
    length 10.3947
    axis -23.196 0.23503 -0.532632 xyz
    dof rx ry rz
  end
  begin
    id 19
    name RightForeArm
    direction -0.99909 0.00114866 0.0426317
    length 8.68355
    axis -9.91764 -0.134943 0.610517 xyz
    dof rx ry rz
  end
  begin
    id 20
    name RightHand
    direction -0.992888 -0.0489538 0.10852
    length 5.28593
    axis -0.00275396 -0.197403 0.246414 xyz
    dof rx ry rz
  end
  begin
    id 21
    name LeftUpLegDummy
    direction 1 -2.30186e-007 -8.31532e-007
    length 4.04083
    axis 0 0 0 xyz
  end
  begin
    id 22
    name LeftUpLeg
    direction -0.000920097 -1 2.79241e-006
    length 17.4221
    axis -3.48782 0.00143434 -0.0532288 xyz
    dof rx ry rz
  end
  begin
    id 23
    name LeftLeg
    direction -0.000920097 -1 2.7912e-006
    length 17.1239
    axis 3.68162 -0.00806512 -0.0529896 xyz
    dof rx ry rz
  end
  begin
    id 24
    name LeftFoot
    direction -2.57845e-005 -3.987e-007 1
    length 6.72091
    axis 3.02372e-005 -0.00147829 -0.214229 xyz
    dof rx ry rz
  end
  begin
    id 25
    name LeftToes
    direction 0.00813577 -0.00488255 0.999955
    length 3.85048
    axis 3.89895e-005 -0.0014783 -0.214229 xyz
    dof rx ry rz
  end
:hierarchy
  begin
    root RightUpLegDummy SpineDummy LeftUpLegDummy
    RightUpLegDummy RightUpLeg
    RightUpLeg RightLeg
    RightLeg RightFoot
    RightFoot RightToes
    SpineDummy Spine
    Spine Spine1
    Spine1 HEadDummy LeftShoulder1Dummy RightShoulderDummy
    HEadDummy HEad
    LeftShoulder1Dummy LeftShoulder1
    LeftShoulder1 LeftArm
    LeftArm LeftForeArm
    LeftForeArm LeftHand
    RightShoulderDummy RightShoulder
    RightShoulder RightArm
    RightArm RightForeArm
    RightForeArm RightHand
    LeftUpLegDummy LeftUpLeg
    LeftUpLeg LeftLeg
    LeftLeg LeftFoot
    LeftFoot LeftToes
  end

:SAMPLES-PER-SECOND 30
:FULLY-SPECIFIED
:DEGREES
106
root  30.2979 34.5538 -36.8543 11.9238 -53.4625 -0.547789
RightUpLeg  -9.82165 -8.83856 4.27315
RightLeg  8.23428 -1.75952 -0.138793
RightFoot  -3.55818 -0.00957459 0.252816
RightToes  -20.5293 -0.0844291 -0.181065
Spine  -3.16257 -0.309435 0.327559
Spine1  -6.39451 -0.521276 1.31
HEad  -61.2569 0.882415 4.79125
LeftShoulder1  -1.94126e-019 -3.10601e-018 -2.51263e-017
LeftArm  -12.7422 26.9902 -81.5951
LeftForeArm  33.5777 -14.8167 -2.43943
LeftHand  -0.417234 -1.35838 7.33543
RightShoulder  -4.96962e-017 0 -2.36833e-017
RightArm  -32.7344 -25.1954 77.7345
RightForeArm  53.9487 14.1982 1.26294
RightHand  -0.290177 -2.16806 -10.2022
LeftUpLeg  -7.53828 10.3693 1.28858
LeftLeg  7.16002 16.8603 1.00898
LeftFoot  -0.727953 -0.00158558 -0.0880631
LeftToes  -23.6819 1.34695e-006 1.12385e-007
107
root  30.0368 34.5172 -36.9134 12.4251 -54.0219 -0.791042
RightUpLeg  -9.78517 -9.41243 4.63209
RightLeg  8.13552 -0.540844 -0.040967
RightFoot  -3.84242 -0.0127529 0.172533
RightToes  -23.0077 -0.098852 -0.200554
Spine  -3.14784 -0.365321 0.402737
Spine1  -6.36266 -0.63445 1.46127
HEad  -61.5659 1.79455 4.56913
LeftShoulder1  -1.94126e-019 -3.10601e-018 -2.51263e-017
LeftArm  -13.2909 26.6655 -81.5843
LeftForeArm  33.8685 -15.3015 -2.55423
LeftHand  -0.424324 -1.37726 7.43831
RightShoulder  -4.96962e-017 0 -2.36833e-017
RightArm  -33.6375 -24.916 77.4516
RightForeArm  55.089 13.3312 1.35667
RightHand  -0.287358 -2.26871 -10.4137
LeftUpLeg  -9.23486 8.95385 1.65791
LeftLeg  10.9676 18.567 2.32973
LeftFoot  -2.39254 -0.0175412 -0.678445
LeftToes  -21.7377 1.34695e-006 1.12385e-007
108
root  29.7797 34.4442 -36.9816 13.3362 -54.2067 -1.58323
RightUpLeg  -9.6267 -9.75978 5.34877
RightLeg  7.90777 0.186474 0.0148933
RightFoot  -4.0968 -0.0153516 0.11839
RightToes  -24.916 -0.110524 -0.215125
Spine  -3.03381 -0.40324 0.610771
Spine1  -6.12881 -0.705453 1.87559
HEad  -62.1396 2.53595 4.20358
LeftShoulder1  -1.94126e-019 -3.10601e-018 -2.51263e-017
LeftArm  -13.4015 26.3975 -81.672
LeftForeArm  33.5784 -17.2832 -2.90102
LeftHand  -0.4273 -1.38422 7.4823
RightShoulder  -4.96962e-017 0 -2.36833e-017
RightArm  -34.5941 -24.3557 76.9433
RightForeArm  55.6288 12.2808 1.46608
RightHand  -0.258549 -2.54686 -10.2067
LeftUpLeg  -12.1249 6.57516 2.36678
LeftLeg  17.3957 20.6211 4.90985
LeftFoot  -4.64435 -0.0741583 -1.667
LeftToes  -18.2176 1.34695e-006 1.12385e-007
109
root  29.5316 34.3064 -37.0264 14.5232 -53.9501 -3.08946
RightUpLeg  -9.30689 -10.6882 6.43683
RightLeg  8.01803 1.20843 0.0927047
RightFoot  -4.44734 -0.0197317 0.0325586
RightToes  -27.052 -0.124157 -0.230964
Spine  -2.73838 -0.384052 1.03595
Spine1  -5.52902 -0.653546 2.71804
HEad  -62.8951 2.98282 3.7527
LeftShoulder1  -1.94126e-019 -3.10601e-018 -2.51263e-017
LeftArm  -13.0251 25.9973 -82.129
LeftForeArm  32.8575 -20.3342 -3.39491
LeftHand  -0.424569 -1.38341 7.43624
RightShoulder  -4.96962e-017 0 -2.36833e-017
RightArm  -35.1253 -23.5111 75.9918
RightForeArm  55.6366 11.3024 1.53187
RightHand  -0.236586 -2.72124 -9.88109
LeftUpLeg  -15.533 3.60728 3.545
LeftLeg  25.3095 21.5936 8.2983
LeftFoot  -6.99421 -0.183644 -2.84278
LeftToes  -13.1831 1.34695e-006 1.12385e-007
110
root  29.2762 34.1527 -36.979 14.4981 -53.628 -3.98217
RightUpLeg  -8.58996 -11.6367 6.91825
RightLeg  8.99993 2.0128 0.188372
RightFoot  -5.50749 -0.0292395 -0.0738203
RightToes  -28.1603 -0.13146 -0.238978
Spine  -2.12866 -0.229339 1.36101
Spine1  -4.30772 -0.342069 3.3308
HEad  -63.7749 3.10362 3.56881
LeftShoulder1  -1.94126e-019 -3.10601e-018 -2.51263e-017
LeftArm  -12.4914 24.9642 -82.7258
LeftForeArm  32.194 -22.6838 -3.7185
LeftHand  -0.427143 -1.49944 7.3635
RightShoulder  -4.96962e-017 0 -2.36833e-017
RightArm  -35.1459 -22.3342 75.0958
RightForeArm  56.5839 10.5559 1.54655
RightHand  -0.219726 -2.94494 -9.94237
LeftUpLeg  -18.5814 1.22128 4.23128
LeftLeg  32.7725 19.8721 10.7049
LeftFoot  -9.37252 -0.319698 -3.73693
LeftToes  -4.50513 1.34695e-006 1.12385e-007
111
root  28.9966 34.0553 -36.8425 13.8061 -53.4708 -4.02441
RightUpLeg  -7.96001 -11.6505 6.80328
RightLeg  10.31 1.89627 0.221243
RightFoot  -6.59865 -0.0365494 -0.100531
RightToes  -28.0616 -0.130804 -0.238271
Spine  -1.57788 -0.0425526 1.53126
Spine1  -3.207 0.0350998 3.63173
HEad  -63.9477 3.03503 3.71537
LeftShoulder1  -1.94126e-019 -3.10601e-018 -2.51263e-017
LeftArm  -12.8367 23.9138 -83.5313
LeftForeArm  32.0091 -23.7106 -3.81601
LeftHand  -0.442331 -1.55261 7.56556
RightShoulder  -4.96962e-017 0 -2.36833e-017
RightArm  -35.2456 -20.9011 74.3644
RightForeArm  58.7789 9.56392 1.51782
RightHand  -0.220292 -3.08704 -10.5711
LeftUpLeg  -21.6079 -0.580205 4.08012
LeftLeg  38.92 17.8516 12.2132
LeftFoot  -9.46482 -0.310912 -3.59277
LeftToes  -5.85575 1.34695e-006 1.12385e-007
112
root  28.6493 34.033 -36.6353 12.844 -53.5329 -3.31162
RightUpLeg  -7.28497 -10.885 6.30775
RightLeg  11.0659 1.13673 0.148138
RightFoot  -7.25028 -0.0352758 -0.0193038
RightToes  -25.9892 -0.1173 -0.223146
Spine  -1.32951 0.132325 1.47991
Spine1  -2.708 0.397064 3.51794
HEad  -62.953 2.90687 4.26208
LeftShoulder1  -1.94126e-019 -3.10601e-018 -2.51263e-017
LeftArm  -13.7377 23.6827 -84.0836
LeftForeArm  32.0407 -24.0551 -3.83498
LeftHand  -0.451239 -1.623 7.64265
RightShoulder  -4.96962e-017 0 -2.36833e-017
RightArm  -36.5045 -19.6383 74.2321
RightForeArm  61.3267 8.41351 1.41241
RightHand  -0.214454 -3.30834 -11.3432
LeftUpLeg  -24.5175 -1.27844 3.22418
LeftLeg  42.9679 16.3749 12.9806
LeftFoot  -7.35228 -0.180748 -2.65111
LeftToes  -9.25363 1.34695e-006 1.12385e-007
